<svg width="64px" height="64px" viewBox="0 0 64 64" xmlns="http://www.w3.org/2000/svg"><g fill="#fff"><path fill="none" d="M0 0h64v64H0z"/><path d="M32 48a16 16 0 1 1 0 -32 16 16 0 0 1 0 32zM29.333 2.667h5.333v8h-5.333V2.667zm0 50.667h5.333v8h-5.333v-8zM9.373 13.144l3.771 -3.771L18.8 15.029 15.029 18.8 9.373 13.147zM45.2 48.971l3.771 -3.771 5.656 5.656 -3.771 3.771 -5.656 -5.656zm5.656 -39.6l3.771 3.773 -5.656 5.656 -3.771 -3.771 5.656 -5.656zM15.029 45.2l3.771 3.771 -5.656 5.656 -3.771 -3.771 5.656 -5.656zM61.333 29.333v5.333h-8v-5.333h8zM10.667 29.333v5.333H2.667v-5.333h8z"/></g></svg>